<?xml version="1.0" standalone="no"?><!-- Generator: Gravit.io --><svg xmlns="http://www.w3.org/2000/svg" xmlns:xlink="http://www.w3.org/1999/xlink" style="isolation:isolate" viewBox="0 0 234.328 44.094" width="234.328" height="44.094"><defs><clipPath id="_clipPath_UPhzoeO1WejF09grODYaAi7gUvmT0tM8"><rect width="234.328" height="44.094"/></clipPath></defs><g clip-path="url(#_clipPath_UPhzoeO1WejF09grODYaAi7gUvmT0tM8)"><path d=" M 49.651 27.313 L 49.651 28.589 C 49.651 33.333 49.573 37.615 44.458 40.911 C 39.344 44.151 33.099 44.094 26.552 44.094 C 11.208 44.094 0 43.516 0 27.661 L 0 16.432 C 0 2.083 10.005 0 26.552 0 C 42.052 0 49.271 1.214 49.573 14.234 L 49.573 15.911 L 34.078 15.911 L 34.078 14.234 C 33.552 10.359 30.016 10.068 24.896 10.068 C 16.323 10.068 15.495 12.094 15.495 18.286 L 15.495 25.057 C 15.495 31.536 15.87 34.026 24.896 34.026 C 31.141 34.026 34.151 33.677 34.151 28.589 L 34.151 27.313 L 49.651 27.313 Z " fill-rule="evenodd" fill="rgb(190,190,190)"/><path d=" M 65.885 36.281 L 63.099 43.745 L 47.453 43.745 L 64.38 0.349 L 87.25 0.349 L 104.401 43.745 L 89.057 43.745 L 86.12 36.281 L 65.885 36.281 Z  M 76.115 9.026 L 75.964 9.026 L 69.12 27.833 L 83.115 27.833 L 76.115 9.026 Z " fill-rule="evenodd" fill="rgb(190,190,190)"/><path d=" M 130.052 17.359 C 146.75 18.286 150.891 19.906 150.891 29.859 C 150.891 37.036 151.266 44.094 126.438 44.094 C 112.068 44.094 102.516 43.865 102.516 29.63 L 116.958 29.63 C 116.958 34.141 119.068 34.604 126.438 34.604 C 133.51 34.604 135.844 34.255 135.844 30.615 C 135.844 26.849 135.016 26.906 127.943 26.563 L 124.635 26.385 C 110.719 25.635 102.594 25.693 102.594 13.25 C 102.594 0.813 111.693 0 126.438 0 C 138.776 0 149.307 0.172 149.307 12.151 L 149.307 13.948 L 134.865 13.948 C 134.865 9.49 132.458 9.49 126.438 9.49 C 118.318 9.49 117.635 10.766 117.635 13.193 C 117.635 16.667 119.818 16.781 123.807 17.01 L 130.052 17.359 Z " fill-rule="evenodd" fill="rgb(190,190,190)"/><path d=" M 154.49 43.745 L 169.536 43.745 L 169.536 0.344 L 154.49 0.344 L 154.49 43.745 Z " fill-rule="evenodd" fill="rgb(190,190,190)"/><path d=" M 172.917 28.182 L 172.917 15.911 C 172.917 2.547 183.75 0 199.026 0 C 214.297 0 225.13 2.547 225.13 15.911 L 225.13 28.182 C 225.13 41.547 214.297 44.094 199.026 44.094 C 183.75 44.094 172.917 41.547 172.917 28.182 Z  M 209.63 26.906 L 209.63 17.13 C 209.63 10.703 206.849 10.068 199.026 10.068 C 191.198 10.068 188.641 10.703 188.417 17.13 L 188.417 26.906 C 188.641 33.391 191.198 34.026 199.026 34.026 C 206.849 34.026 209.63 33.391 209.63 26.906 Z " fill-rule="evenodd" fill="rgb(190,190,190)"/><path d=" M 232.339 39.792 L 230.651 39.792 L 229.37 37.781 L 229.354 37.781 L 229.354 39.792 L 228 39.792 L 228 34.573 L 230.026 34.573 C 231.057 34.573 231.839 35.063 231.839 36.177 C 231.839 36.896 231.438 37.521 230.698 37.651 L 232.339 39.792 Z  M 229.354 36.911 L 229.484 36.911 C 229.932 36.911 230.427 36.828 230.427 36.26 C 230.427 35.693 229.932 35.609 229.484 35.609 L 229.354 35.609 L 229.354 36.911 Z " fill-rule="evenodd" fill="rgb(190,190,190)"/><path d=" M 229.87 41.172 C 230.911 41.172 231.859 40.75 232.542 40.068 C 233.224 39.385 233.646 38.438 233.646 37.396 C 233.646 36.354 233.224 35.411 232.542 34.724 C 231.859 34.042 230.911 33.62 229.87 33.62 C 228.828 33.62 227.885 34.042 227.198 34.724 C 226.516 35.411 226.094 36.354 226.094 37.396 C 226.094 38.438 226.516 39.385 227.198 40.068 C 227.885 40.75 228.828 41.172 229.87 41.172 Z  M 233.021 40.547 C 232.219 41.354 231.104 41.854 229.87 41.854 C 228.641 41.854 227.526 41.354 226.719 40.547 C 225.911 39.74 225.411 38.625 225.411 37.396 C 225.411 36.167 225.911 35.052 226.719 34.245 C 227.526 33.438 228.641 32.938 229.87 32.938 C 231.104 32.938 232.219 33.438 233.021 34.245 C 233.828 35.052 234.328 36.167 234.328 37.396 C 234.328 38.625 233.828 39.74 233.021 40.547 Z " fill="rgb(190,190,190)"/></g></svg>